<?xml version="1.0" encoding="utf-8"?>
<!-- Uploaded to: SVG Repo, www.svgrepo.com, Generator: SVG Repo Mixer Tools -->
<svg fill="#000000" height="800px" width="800px" version="1.2" baseProfile="tiny" id="Layer_1" xmlns="http://www.w3.org/2000/svg" xmlns:xlink="http://www.w3.org/1999/xlink"
	  viewBox="-351 153 256 256" xml:space="preserve">
<path d="M-116,195.6c7-6.8,6.8-17.7,0-24.7s-17.7-6.8-24.7,0l-61.3,61.6l25,24.9L-116,195.6z M-323.9,375.7
	c-1.9,1.9-1.7,4.9,0.2,6.8c0.1,0.5,0.8,0.8,1.1,1.1c1.6,0.8,3.9,0.7,5.4-0.9l119.5-121c1.9-1.9,1.7-4.9-0.2-6.8s-4.9-1.7-6.8,0.2
	L-323.9,375.7z M-285.8,362.7c-1.9,1.9-1.7,4.9,0.2,6.8c0.1,0.5,0.8,0.8,1.1,1.1c1.6,0.8,3.9,0.7,5.4-0.9l80.4-81.9
	c1.9-1.9,1.7-4.9-0.2-6.8c-1.9-1.9-4.9-1.7-6.8,0.2L-285.8,362.7z M-290.5,392.4c-1.9,1.9-1.7,4.9,0.2,6.8c0.1,0.5,0.8,0.8,1.1,1.1
	c1.6,0.8,3.9,0.7,5.4-0.9l68-69.4c1.9-1.9,1.7-4.9-0.2-6.8c-1.9-1.9-4.9-1.7-6.8,0.2L-290.5,392.4z M-310.8,337.9
	c-1.9,1.9-1.7,4.9,0.2,6.8c0.1,0.5,0.8,0.8,1.1,1.1c1.6,0.8,3.9,0.7,5.4-0.9l80.4-81.9c1.9-1.9,1.7-4.9-0.2-6.8
	c-1.9-1.9-4.9-1.7-6.8,0.2L-310.8,337.9z M-339.7,350.6c0.1,0.5,0.8,0.8,1.1,1.1c1.6,0.8,3.9,0.7,5.4-0.9l68-69.4
	c1.9-1.9,1.7-4.9-0.2-6.8c-1.9-1.9-4.9-1.7-6.8,0.2l-68,69.4C-341.9,346.1-341.8,349.1-339.7,350.6z"/>
</svg>